<svg width="31" height="19" viewBox="0 0 31 19" fill="none"
    xmlns="http://www.w3.org/2000/svg">
    <path d="M10.4431 3.76555C13.0835 5.29342 15.2696 6.53138 15.2931 6.52355C15.3166 6.51571 17.4948 5.26991 20.1196 3.74988C24.4446 1.2426 24.9304 0.984042 25.2517 0.976206C25.5651 0.976206 25.8315 1.10157 27.6414 2.15149C28.7618 2.79398 29.8039 3.43647 29.9528 3.5775L30.227 3.82039L30.2505 9.21887C30.2662 14.4528 30.2662 14.6173 30.1173 14.8602C30.0311 15.0013 29.8823 15.1658 29.7804 15.2285C29.6786 15.2912 26.4504 15.9493 22.5955 16.6858C18.7484 17.4224 15.536 18.0492 15.4655 18.0727C15.0972 18.2059 15.865 17.7514 20.2214 15.2363C24.0137 13.0425 25.0009 12.447 25.1106 12.2511C25.2438 12.0239 25.2516 11.7888 25.236 9.29722L25.2125 6.5784L22.3526 8.23163C15.4341 12.2276 15.5908 12.1414 15.2617 12.1414C14.9875 12.1414 14.2667 11.7496 10.1297 9.3599L5.31099 6.5784L5.28749 9.28938C5.27182 11.7967 5.27965 12.0239 5.41285 12.2511C5.52255 12.447 6.51762 13.0503 10.302 15.2363C14.6741 17.7593 15.4263 18.2059 15.0502 18.0727C14.9797 18.0492 11.7672 17.4224 7.92013 16.6858C2.47464 15.6359 0.876255 15.3068 0.70388 15.1815C0.249437 14.8602 0.257272 14.9621 0.257272 9.26588C0.257272 4.21216 0.265107 4.02411 0.413977 3.78122C0.492329 3.64018 0.696045 3.4443 0.860585 3.33461C1.29152 3.06038 4.69985 1.10157 4.90356 1.01538C5.31883 0.835172 5.59306 0.976207 10.4431 3.76555Z" fill="white"/>
</svg>
